<!--?xml version="1.0" standalone="no"?-->
              <svg id="sw-js-blob-svg" viewBox="0 0 100 100" xmlns="http://www.w3.org/2000/svg" version="1.1">
                    <defs> 
                        <linearGradient id="sw-gradient" x1="0" x2="1" y1="1" y2="0">
                            <stop id="stop1" stop-color="rgba(246.879, 233.692, 32.62, 1)" offset="0%"></stop>
                            <stop id="stop2" stop-color="rgba(255, 242.964, 195.126, 1)" offset="100%"></stop>
                        </linearGradient>
                    </defs>
                <path fill="url(#sw-gradient)" d="M22.8,-37.7C28,-32.2,29.4,-23.2,30.3,-15.5C31.2,-7.9,31.5,-1.7,30.6,4.4C29.7,10.4,27.6,16.3,24.1,21.5C20.5,26.6,15.5,31.1,9.2,34.4C2.9,37.7,-4.7,39.8,-11.8,38.5C-19,37.2,-25.7,32.7,-31.3,26.8C-36.8,20.9,-41.2,13.7,-41.1,6.6C-41,-0.4,-36.3,-7.4,-31.9,-13.6C-27.6,-19.7,-23.5,-25,-18.3,-30.5C-13,-35.9,-6.5,-41.5,1.2,-43.3C8.8,-45.1,17.7,-43.2,22.8,-37.7Z" width="100%" height="100%" transform="translate(50 50)" style="transition: all 0.3s ease 0s;" stroke-width="0"></path>
              </svg>